HIERARCHY
ROOT ui
{
	 OFFSET 0 0 0
	 CHANNELS 3 XPosition YPosition Z Position
	 EndSite
	 {
	 OFFSET 0 -1 0
	 }
}
ROOT li
{
	 OFFSET 0 0 0
	 CHANNELS 3 XPosition YPosition Z Position
	 EndSite
	 {
	 OFFSET 0 -1 0
	 }
}
ROOT ul
{
	 OFFSET 0 0 0
	 CHANNELS 3 XPosition YPosition Z Position
	 EndSite
	 {
	 OFFSET 0 -1 0
	 }
}
ROOT ll
{
	 OFFSET 0 0 0
	 CHANNELS 3 XPosition YPosition Z Position
	 EndSite
	 {
	 OFFSET 0 -1 0
	 }
}
ROOT tt
{
	 OFFSET 0 0 0
	 CHANNELS 3 XPosition YPosition Z Position
	 EndSite
	 {
	 OFFSET 0 -1 0
	 }
}
ROOT tb
{
	 OFFSET 0 0 0
	 CHANNELS 3 XPosition YPosition Z Position
	 EndSite
	 {
	 OFFSET 0 -1 0
	 }
}
ROOT td
{
	 OFFSET 0 0 0
	 CHANNELS 3 XPosition YPosition Z Position
	 EndSite
	 {
	 OFFSET 0 -1 0
	 }
}
ROOT v
{
	 OFFSET 0 0 0
	 CHANNELS 3 XPosition YPosition Z Position
	 EndSite
	 {
	 OFFSET 0 -1 0
	 }
}
ROOT bn
{
	 OFFSET 0 0 0
	 CHANNELS 3 XPosition YPosition Z Position
	 EndSite
	 {
	 OFFSET 0 -1 0
	 }
}
MOTION
Frames: 13
Frame Time: 0.002
0.004976675987243652	0.0011245690584182739	0		0.5175130615234375	-2.562155517578125	0		-1.0463292236328126	-0.1023735122680664	0		-0.7407195434570313	-2.490178955078125	0		1.840093017578125	-1.59682421875	0		3.067857666015625	-0.5313576049804688	0		4.36527392578125	0.16825424194335936	0		5.8888798828125	0.34287750244140625	0		-0.3298752136230469	5.8985263671875	0		
8.83433997631073E-4	-0.0017853460311889648	0		0.5155091552734375	-2.5650712890625	0		-1.040443359375	-0.10743862152099609	0		-0.710811279296875	-2.500517822265625	0		1.8750172119140625	-1.603132568359375	0		3.08455615234375	-0.553408447265625	0		4.37705517578125	0.15530740356445313	0		5.8924912109375	0.36050479125976564	0		-0.3641959228515625	5.8939609375	0		
-0.004114748001098633	0.003323071002960205	0		0.5036185302734375	-2.55786328125	0		-1.03646240234375	-0.10447042083740235	0		-0.714834716796875	-2.504443603515625	0		1.8819163818359375	-1.611104248046875	0		3.11349072265625	-0.5556015014648438	0		4.40257666015625	0.12019419860839843	0		5.89733447265625	0.3382928466796875	0		-0.3644454040527344	5.89399853515625	0		
-0.002266511917114258	-0.00464379596710205	0		0.4855320739746094	-2.5665791015625	0		-1.0305758056640626	-0.10951522827148437	0		-0.69909033203125	-2.527595703125	0		1.9147039794921874	-1.6283804931640624	0		3.124166015625	-0.579581298828125	0		4.4044091796875	0.11135770416259766	0		5.8788193359375	0.35306402587890623	0		-0.3977571105957031	5.88743408203125	0		
7.131180167198181E-4	-0.0016168880462646485	0		0.5234347534179687	-2.57595068359375	0		-1.090589111328125	-0.10577326202392578	0		-0.735042236328125	-2.524127685546875	0		1.9056561279296875	-1.631161865234375	0		3.15920556640625	-0.5728499755859375	0		4.435171875	0.09617102813720703	0		5.8843525390625	0.325597900390625	0		-0.3629215393066406	5.89107373046875	0		
0.004695241928100586	0.0014044270515441895	0		0.5176039428710938	-2.561801025390625	0		-1.003528076171875	-0.09675215148925781	0		-0.668161376953125	-2.5348623046875	0		1.9426015625	-1.63448583984375	0		3.158859619140625	-0.5987096557617188	0		4.450869140625	0.07515120697021484	0		5.8771923828125	0.327876708984375	0		-0.38019781494140625	5.88333447265625	0		
6.111469864845275E-4	-0.0014736570119857789	0		0.50949560546875	-2.57062255859375	0		-1.0906868896484374	-0.10567375946044921	0		-0.6914451904296876	-2.558528076171875	0		1.9774971923828124	-1.64178662109375	0		3.195771728515625	-0.6030123291015625	0		4.48162890625	0.058942913055419925	0		5.87646142578125	0.331669189453125	0		-0.3652242736816406	5.8942255859375	0		
5.663340091705322E-4	-0.0013925060033798218	0		0.5094851684570313	-2.57053466796875	0		-1.0117005615234376	-0.10353347778320313	0		-0.66662158203125	-2.572748291015625	0		1.9912857666015624	-1.657842041015625	0		3.198465087890625	-0.6259219970703125	0		4.4804072265625	0.044096790313720706	0		5.88076806640625	0.3439339599609375	0		-0.38047589111328123	5.883478515625	0		
-0.007461651802062989	-2.107899934053421E-4	0		0.4814690246582031	-2.5701142578125	0		-1.0907696533203124	-0.10552855682373047	0		-0.6988014526367188	-2.5862900390625	0		1.9981656494140625	-1.6658182373046875	0		3.247520751953125	-0.6183807983398437	0		4.5150947265625	0.020815141677856447	0		5.88267041015625	0.30086688232421877	0		-0.399507080078125	5.88878564453125	0		
0.004525754928588867	0.001744178056716919	0		0.4913374938964844	-2.57913330078125	0		-1.0786763916015625	-0.09457830810546874	0		-0.660063720703125	-2.60665234375	0		2.0080892333984375	-1.669831787109375	0		3.254276611328125	-0.6363536376953125	0		4.52605908203125	0.020799076080322266	0		5.87860888671875	0.3513592529296875	0		-0.3806244201660156	5.88365771484375	0		
0.004496438026428223	0.0018480509519577027	0		0.48343499755859376	-2.56793701171875	0		-1.078705810546875	-0.09447337341308594	0		-0.668188720703125	-2.61445361328125	0		2.044009033203125	-1.6741512451171876	0		3.291185546875	-0.6416858520507812	0		4.54178271484375	-2.874050140380859E-4	0		5.8749462890625	0.33606130981445315	0		-0.38064797973632813	5.88376171875	0		
-0.004502327919006348	0.004065773963928223	0		0.5042911376953125	-2.577072509765625	0		-1.0077809448242188	-0.09918656921386719	0		-0.6355328369140625	-2.640722412109375	0		2.04194189453125	-1.6770264892578124	0		3.300006103515625	-0.6546961669921875	0		4.5585009765625	-0.022397697448730467	0		5.8820537109375	0.334266845703125	0		-0.34658209228515624	5.8884775390625	0		
4.227130115032196E-4	-8.716530203819275E-4	0		0.47625180053710936	-2.57662841796875	0		-1.07874609375	-0.0942236099243164	0		-0.6418909301757812	-2.667523193359375	0		2.077871826171875	-1.6803475341796874	0		3.316830078125	-0.6678060913085937	0		4.56729638671875	-0.038425937652587894	0		5.88468505859375	0.29104742431640623	0		-0.414664794921875	5.87839990234375	0		
